<svg width="454" height="171" viewBox="0 0 454 171" fill="none" xmlns="http://www.w3.org/2000/svg">
<g clip-path="url(#clip0_13_21)" filter="url(#filter0_i_13_21)">
<path d="M78.1218 44.45H66.3704V126.716H78.1218V44.45Z" fill="#4271CD"/>
<path d="M101.542 32.6741H78.1218V44.45H101.542V32.6741Z" fill="#4271CD"/>
<path d="M66.3704 32.6741H42.9504V44.45H66.3704V32.6741Z" fill="#4271CD"/>
<path d="M101.542 126.467H78.1218V138.243H101.542V126.467Z" fill="#4271CD"/>
<path d="M66.3704 126.467H42.9504V138.243H66.3704V126.467Z" fill="#4271CD"/>
<path d="M129.182 127.96L82.7561 81.4365L84.5767 85.8317V85.5829L82.7561 89.9782L129.182 43.4549C134.81 37.8157 126.038 29.0252 120.41 34.6644L78.4528 76.7095C76.7149 78.451 74.315 80.2755 72.9909 82.4316C70.4254 86.8269 73.9839 90.144 76.7976 93.0466L100.631 116.93L120.41 136.75C126.12 142.389 134.892 133.599 129.182 127.96Z" fill="#4271CD"/>
<path d="M243.551 50.6697H313.894L309.508 40.0548L247.524 117.096L238.834 127.96C235.607 131.94 237.427 138.575 243.22 138.575H313.563C321.507 138.575 321.59 126.135 313.563 126.135H243.22L247.606 136.75L309.591 59.709L318.28 48.8453C321.507 44.8647 319.687 38.2303 313.894 38.2303H243.551C235.607 38.2303 235.607 50.6697 243.551 50.6697Z" fill="#4271CD"/>
<path d="M181.236 103.164C200.66 103.164 216.407 87.3842 216.407 67.919C216.407 48.4538 200.66 32.6741 181.236 32.6741C161.811 32.6741 146.065 48.4538 146.065 67.919C146.065 87.3842 161.811 103.164 181.236 103.164Z" fill="#D93056"/>
<path d="M216.407 106.564H146.065V130.116H216.407V106.564Z" fill="#4271CD"/>
<path d="M375.961 138.492C395.386 138.492 411.132 122.712 411.132 103.247C411.132 83.7816 395.386 68.002 375.961 68.002C356.536 68.002 340.79 83.7816 340.79 103.247C340.79 122.712 356.536 138.492 375.961 138.492Z" fill="#D93056"/>
<path d="M411.132 41.7963H340.79V65.2653H411.132V41.7963Z" fill="#4271CD"/>
<path d="M162.45 167.766H21.9304" stroke="#5A80D5" stroke-width="7" stroke-miterlimit="10"/>
<path d="M178.091 138.492C178.091 146.536 179.333 155.409 172.298 161.131C168.491 164.283 164.105 164.614 159.471 164.614H34.5093C30.6198 164.614 26.7302 164.614 22.8407 164.614C13.6548 164.532 6.28948 157.897 6.28948 148.443C6.28948 144.463 0.0827705 144.463 0.0827705 148.443V148.941C0.0827705 152.921 6.28948 152.921 6.28948 148.941V27.0349C6.28948 20.1518 6.70326 13.4345 13.1582 9.03928C19.1994 4.89282 28.9647 6.30262 35.9162 6.30262H265.813C290.391 6.30262 315.053 6.96605 339.631 6.30262H340.79C344.762 6.30262 344.762 0.0829311 340.79 0.0829311H40.5505C34.3438 0.0829311 28.1371 -0.0829272 21.9304 0.0829311C9.84799 0.331719 0.165527 10.1174 0.0827705 22.1421C1.43722e-05 26.5373 0.0827705 30.8497 0.0827705 35.162V148.858C0.0827705 152.839 6.28948 152.839 6.28948 148.858V148.443C6.28948 144.463 0.0827705 144.463 0.0827705 148.443C1.43722e-05 159.97 8.77216 169.673 20.2753 170.751C22.8407 171 25.4889 170.834 28.0543 170.834H159.306C165.347 170.834 170.974 170.088 175.94 166.19C184.96 159.058 184.381 148.858 184.381 138.492C184.298 134.428 178.091 134.428 178.091 138.492Z" fill="#4271CD"/>
<path d="M379.023 32.6741C379.023 26.8691 378.03 20.0689 380.926 14.7614C384.402 8.45878 390.609 6.46848 397.312 6.46848C408.65 6.46848 419.987 6.38555 431.325 6.46848C440.511 6.55141 447.793 13.2687 447.793 22.6397C447.793 26.6203 454 26.6203 454 22.6397V21.8933C454 17.9127 447.793 17.9127 447.793 21.8933V137.911C447.793 141.311 447.793 144.711 447.793 148.112C447.711 157.068 441.256 164.2 432.152 164.532C414.774 165.112 397.312 164.532 380.016 164.532H280.047C259.192 164.532 238.255 163.951 217.4 164.532C217.069 164.532 216.738 164.532 216.407 164.532C212.435 164.532 212.435 170.751 216.407 170.751H372.237C392.098 170.751 411.96 171.166 431.821 170.751C440.262 170.585 448.042 166.107 451.766 158.478C453.835 154.248 454 150.019 454 145.458V21.8933C454 17.9127 447.793 17.9127 447.793 21.8933V22.6397C447.793 26.6203 454 26.6203 454 22.6397C454 12.6052 447.297 3.31717 437.366 0.912221C431.904 -0.414647 425.78 0.331716 420.235 0.331716H398.057C390.526 0.331716 383.409 1.90737 378.195 7.9612C372.071 15.0931 372.899 23.8836 372.899 32.6741C372.899 36.6547 379.106 36.6547 379.023 32.6741Z" fill="#4271CD"/>
<path d="M171.636 152.175L183.388 140.399L181.236 141.311L179.084 140.399L190.836 152.175C193.649 154.995 198.035 150.599 195.222 147.78L188.518 141.063C186.863 139.404 183.967 135.092 181.236 135.092C178.505 135.092 175.857 139.155 174.284 140.731L167.333 147.697C164.436 150.599 168.822 154.995 171.636 152.175Z" fill="#4271CD"/>
<path d="M385.478 18.742L373.727 30.5179L375.878 29.6057H375.795L377.947 30.5179L366.196 18.742C363.382 15.9224 358.996 20.3177 361.81 23.1372L368.513 29.8545C370.168 31.5131 373.065 35.8254 375.795 35.8254C378.526 35.8254 381.175 31.7619 382.747 30.1862L389.781 23.1372C392.678 20.3177 388.292 15.9224 385.478 18.742Z" fill="#4271CD"/>
</g>
<defs>
<filter id="filter0_i_13_21" x="0" y="0" width="454" height="175" filterUnits="userSpaceOnUse" color-interpolation-filters="sRGB">
<feFlood flood-opacity="0" result="BackgroundImageFix"/>
<feBlend mode="normal" in="SourceGraphic" in2="BackgroundImageFix" result="shape"/>
<feColorMatrix in="SourceAlpha" type="matrix" values="0 0 0 0 0 0 0 0 0 0 0 0 0 0 0 0 0 0 127 0" result="hardAlpha"/>
<feOffset dy="9"/>
<feGaussianBlur stdDeviation="2"/>
<feComposite in2="hardAlpha" operator="arithmetic" k2="-1" k3="1"/>
<feColorMatrix type="matrix" values="0 0 0 0 0 0 0 0 0 0 0 0 0 0 0 0 0 0 0.4 0"/>
<feBlend mode="normal" in2="shape" result="effect1_innerShadow_13_21"/>
</filter>
<clipPath id="clip0_13_21">
<rect width="454" height="171" fill="white"/>
</clipPath>
</defs>
</svg>
