<?xml version="1.0" encoding="utf-8"?>
<!-- Generator: Adobe Illustrator 28.0.0, SVG Export Plug-In . SVG Version: 6.00 Build 0)  -->
<svg version="1.1" id="Capa_1" xmlns="http://www.w3.org/2000/svg" xmlns:xlink="http://www.w3.org/1999/xlink" x="0px" y="0px"
	 viewBox="0 0 548.6 206.2" style="enable-background:new 0 0 548.6 206.2;" xml:space="preserve">
<style type="text/css">
	.st0{fill:#1D4199;}
	.st1{fill:#E25D5D;}
	.st2{fill:none;stroke:#4061AB;stroke-width:7;stroke-miterlimit:10;}
</style>
<rect x="80.2" y="53.6" class="st0" width="14.2" height="99.2"/>
<rect x="94.4" y="39.4" class="st0" width="28.3" height="14.2"/>
<rect x="51.9" y="39.4" class="st0" width="28.3" height="14.2"/>
<rect x="94.4" y="152.5" class="st0" width="28.3" height="14.2"/>
<rect x="51.9" y="152.5" class="st0" width="28.3" height="14.2"/>
<path class="st0" d="M156.1,154.3L100,98.2l2.2,5.3v-0.3l-2.2,5.3l56.1-56.1c6.8-6.8-3.8-17.4-10.6-10.6L94.8,92.5
	c-2.1,2.1-5,4.3-6.6,6.9c-3.1,5.3,1.2,9.3,4.6,12.8l28.8,28.8l23.9,23.9C152.4,171.7,163,161.1,156.1,154.3L156.1,154.3z"/>
<path class="st0" d="M294.3,61.1h85L374,48.3l-74.9,92.9l-10.5,13.1c-3.9,4.8-1.7,12.8,5.3,12.8h85c9.6,0,9.7-15,0-15h-85l5.3,12.8
	L374.1,72l10.5-13.1c3.9-4.8,1.7-12.8-5.3-12.8h-85C284.7,46.1,284.7,61.1,294.3,61.1L294.3,61.1z"/>
<circle class="st1" cx="219" cy="81.9" r="42.5"/>
<rect x="176.5" y="128.5" class="st0" width="85" height="28.4"/>
<circle class="st1" cx="454.3" cy="124.5" r="42.5"/>
<rect x="411.8" y="50.4" class="st0" width="85" height="28.3"/>
<path class="st2" d="M196.3,202.3H26.5"/>
<path class="st0" d="M215.2,167c0,9.7,1.5,20.4-7,27.3c-4.6,3.8-9.9,4.2-15.5,4.2H41.7c-4.7,0-9.4,0-14.1,0
	c-11.1-0.1-20-8.1-20-19.5c0-4.8-7.5-4.8-7.5,0v0.6c0,4.8,7.5,4.8,7.5,0v-147c0-8.3,0.5-16.4,8.3-21.7c7.3-5,19.1-3.3,27.5-3.3
	h277.8c29.7,0,59.5,0.8,89.2,0h1.4c4.8,0,4.8-7.5,0-7.5H49c-7.5,0-15-0.2-22.5,0C11.9,0.4,0.2,12.2,0.1,26.7c-0.1,5.3,0,10.5,0,15.7
	v137.1c0,4.8,7.5,4.8,7.5,0V179c0-4.8-7.5-4.8-7.5,0c-0.1,13.9,10.5,25.6,24.4,26.9c3.1,0.3,6.3,0.1,9.4,0.1h158.6
	c7.3,0,14.1-0.9,20.1-5.6c10.9-8.6,10.2-20.9,10.2-33.4C222.7,162.1,215.2,162.1,215.2,167L215.2,167z"/>
<path class="st0" d="M458,39.4c0-7-1.2-15.2,2.3-21.6c4.2-7.6,11.7-10,19.8-10c13.7,0,27.4-0.1,41.1,0c11.1,0.1,19.9,8.2,19.9,19.5
	c0,4.8,7.5,4.8,7.5,0v-0.9c0-4.8-7.5-4.8-7.5,0v139.9c0,4.1,0,8.2,0,12.3c-0.1,10.8-7.9,19.4-18.9,19.8c-21,0.7-42.1,0-63,0H338.4
	c-25.2,0-50.5-0.7-75.7,0c-0.4,0-0.8,0-1.2,0c-4.8,0-4.8,7.5,0,7.5h188.3c24,0,48,0.5,72,0c10.2-0.2,19.6-5.6,24.1-14.8
	c2.5-5.1,2.7-10.2,2.7-15.7v-149c0-4.8-7.5-4.8-7.5,0v0.9c0,4.8,7.5,4.8,7.5,0c0-12.1-8.1-23.3-20.1-26.2c-6.6-1.6-14-0.7-20.7-0.7
	H481c-9.1,0-17.7,1.9-24,9.2c-7.4,8.6-6.4,19.2-6.4,29.8C450.6,44.2,458.1,44.2,458,39.4L458,39.4z"/>
<path class="st0" d="M207.4,183.5l14.2-14.2l-2.6,1.1h0l-2.6-1.1l14.2,14.2c3.4,3.4,8.7-1.9,5.3-5.3l-8.1-8.1c-2-2-5.5-7.2-8.8-7.2
	s-6.5,4.9-8.4,6.8l-8.4,8.4C198.7,181.6,204,186.9,207.4,183.5L207.4,183.5z"/>
<path class="st0" d="M465.8,22.6l-14.2,14.2l2.6-1.1h-0.1l2.6,1.1l-14.2-14.2c-3.4-3.4-8.7,1.9-5.3,5.3l8.1,8.1c2,2,5.5,7.2,8.8,7.2
	s6.5-4.9,8.4-6.8l8.5-8.5C474.5,24.5,469.2,19.2,465.8,22.6L465.8,22.6z"/>
</svg>
